<svg width="1408" height="92" viewBox="0 0 1408 92" fill="none" xmlns="http://www.w3.org/2000/svg">
<rect width="1408" height="92" rx="6" fill="#FAFAFA"/>
<path d="M115.628 31.614H119.562C120.169 30.662 120.691 29.612 121.13 28.464L121.872 28.73C121.433 29.7753 120.92 30.7367 120.332 31.614H122.39V35.87H120.444V39.888C120.444 40.2613 120.626 40.448 120.99 40.448H121.928C122.199 40.448 122.395 40.3593 122.516 40.182C122.656 39.9393 122.754 39.2533 122.81 38.124L123.496 38.348C123.412 39.664 123.258 40.476 123.034 40.784C122.838 41.0267 122.511 41.148 122.054 41.148H120.766C120.066 41.148 119.716 40.7747 119.716 40.028V35.87H118.204C118.064 38.3807 116.967 40.2147 114.914 41.372L114.494 40.728C116.389 39.7293 117.392 38.11 117.504 35.87H115.628V31.614ZM121.676 35.17V32.314H116.342V35.17H121.676ZM116.664 28.534C117.215 29.2527 117.723 30.0413 118.19 30.9L117.546 31.222C117.061 30.3353 116.543 29.5513 115.992 28.87L116.664 28.534ZM112.198 28.786C113.131 29.4953 113.92 30.214 114.564 30.942L114.046 31.46C113.467 30.788 112.669 30.0693 111.652 29.304L112.198 28.786ZM110.616 32.958H113.5V39.356C113.948 38.9827 114.489 38.4787 115.124 37.844L115.334 38.656C114.513 39.4773 113.668 40.1867 112.8 40.784L112.506 40.098C112.674 39.93 112.758 39.7433 112.758 39.538V33.7H110.616V32.958ZM129.278 29.5V38.922H126.086V40.084H125.33V29.5H129.278ZM126.086 38.18H128.536V34.512H126.086V38.18ZM126.086 33.77H128.536V30.228H126.086V33.77ZM131.728 33.28V35.744L131.714 35.926H135.732V33.28H131.728ZM135.732 32.566V29.85H131.728V32.566H135.732ZM131.672 36.654C131.504 38.5767 130.977 40.1587 130.09 41.4L129.488 40.854C130.44 39.482 130.93 37.7367 130.958 35.618V29.108H136.502V40.084C136.502 40.8493 136.119 41.232 135.354 41.232H133.492L133.282 40.504C134.159 40.5227 134.766 40.532 135.102 40.532C135.522 40.532 135.732 40.294 135.732 39.818V36.654H131.672ZM141.5 31.642C141.715 31.642 141.887 31.7073 142.018 31.838C142.149 31.9687 142.214 32.1367 142.214 32.342C142.214 32.538 142.149 32.7013 142.018 32.832C141.878 32.972 141.705 33.042 141.5 33.042C141.304 33.042 141.136 32.972 140.996 32.832C140.856 32.692 140.786 32.5287 140.786 32.342C140.786 32.1273 140.856 31.9593 140.996 31.838C141.127 31.7073 141.295 31.642 141.5 31.642ZM141.5 36.766C141.715 36.766 141.887 36.8313 142.018 36.962C142.149 37.0927 142.214 37.2607 142.214 37.466C142.214 37.662 142.149 37.8253 142.018 37.956C141.878 38.096 141.705 38.166 141.5 38.166C141.304 38.166 141.136 38.096 140.996 37.956C140.856 37.816 140.786 37.6527 140.786 37.466C140.786 37.2513 140.856 37.0833 140.996 36.962C141.127 36.8313 141.295 36.766 141.5 36.766Z" fill="#8C8C8C"/>
<path d="M112.492 53.178H121.536V58.708H112.492V53.178ZM120.78 57.994V56.286H113.248V57.994H120.78ZM113.248 55.6H120.78V53.878H113.248V55.6ZM115.166 59.464H115.922V64.224H118.078V59.464H118.834V64.224H123.118V64.966H110.882V64.224H115.166V59.464ZM122.446 60.08C121.905 61.3773 121.284 62.4787 120.584 63.384L119.996 62.964C120.677 62.0773 121.27 61.0087 121.774 59.758L122.446 60.08ZM112.198 59.982C112.973 61.13 113.556 62.11 113.948 62.922L113.36 63.342C112.893 62.4087 112.301 61.4193 111.582 60.374L112.198 59.982ZM128.48 65.19L128.312 64.462C129.115 64.4993 129.684 64.518 130.02 64.518C130.468 64.518 130.692 64.2987 130.692 63.86V57.77H125.064V57.028H136.936V57.77H131.462V64.056C131.462 64.812 131.07 65.19 130.286 65.19H128.48ZM128.074 59.618C127.486 61.55 126.651 63.2067 125.568 64.588L124.91 64.182C126.011 62.7727 126.819 61.1953 127.332 59.45L128.074 59.618ZM134.458 59.338C135.438 60.85 136.278 62.46 136.978 64.168L136.292 64.476C135.536 62.628 134.696 60.99 133.772 59.562L134.458 59.338ZM126.352 53.444H135.69V54.2H126.352V53.444ZM143.334 53.808C144.398 53.808 145.303 54.0973 146.05 54.676C146.825 55.264 147.277 56.048 147.408 57.028H146.582C146.461 56.2533 146.083 55.6513 145.448 55.222C144.851 54.802 144.141 54.592 143.32 54.592C142.097 54.592 141.136 55.026 140.436 55.894C139.783 56.6967 139.456 57.7467 139.456 59.044C139.456 60.3413 139.778 61.382 140.422 62.166C141.094 62.9967 142.032 63.412 143.236 63.412C144.076 63.412 144.809 63.1833 145.434 62.726C146.097 62.222 146.526 61.508 146.722 60.584H147.548C147.333 61.7413 146.811 62.6467 145.98 63.3C145.196 63.8973 144.286 64.196 143.25 64.196C141.757 64.196 140.59 63.6827 139.75 62.656C138.985 61.7227 138.602 60.5187 138.602 59.044C138.602 57.5693 138.994 56.3513 139.778 55.39C140.627 54.3353 141.813 53.808 143.334 53.808ZM149.167 54.004H153.227C155.448 54.004 156.559 54.9607 156.559 56.874C156.559 58.7967 155.443 59.758 153.213 59.758H150.021V64H149.167V54.004ZM150.021 54.76V59.002H153.171C154.02 59.002 154.659 58.8247 155.089 58.47C155.49 58.1153 155.691 57.5833 155.691 56.874C155.691 56.174 155.49 55.6513 155.089 55.306C154.669 54.942 154.029 54.76 153.171 54.76H150.021ZM158.012 54.732H164.116C163.854 54.088 163.5 53.4533 163.052 52.828L163.78 52.562C164.19 53.178 164.559 53.9013 164.886 54.732H170.164V55.474H162.73L162.576 58.218H168.414C168.386 60.8313 168.297 62.53 168.148 63.314C167.914 64.5647 167.242 65.2133 166.132 65.26C165.684 65.26 165.142 65.246 164.508 65.218L164.284 64.518C165.217 64.5553 165.805 64.574 166.048 64.574C166.86 64.5367 167.35 63.9673 167.518 62.866C167.602 62.194 167.644 60.8873 167.644 58.946H162.492C162.324 60.1033 161.988 61.1673 161.484 62.138C160.802 63.286 159.846 64.3687 158.614 65.386L158.054 64.854C159.547 63.5847 160.55 62.4087 161.064 61.326C161.53 60.262 161.806 59.044 161.89 57.672C161.936 56.664 161.964 55.9313 161.974 55.474H158.012V54.732ZM176.968 52.59H177.752V57.014H182.932V57.742H177.752V64.014H184.234V64.756H171.844V64.014H176.968V52.59ZM190.408 59.1C189.82 59.3987 189.25 59.66 188.7 59.884V64.182C188.7 64.938 188.331 65.316 187.594 65.316H186.306L186.138 64.588C186.698 64.6253 187.09 64.644 187.314 64.644C187.743 64.644 187.958 64.4247 187.958 63.986V60.178C187.295 60.43 186.59 60.668 185.844 60.892L185.648 60.15C186.516 59.9353 187.286 59.702 187.958 59.45V55.978H185.844V55.264H187.958V52.646H188.7V55.264H190.366V55.978H188.7V59.156C189.288 58.904 189.857 58.6333 190.408 58.344V59.1ZM192.032 58.946V65.372H191.304V53.234H197.24C197.24 54.6993 197.16 55.684 197.002 56.188C196.852 56.692 196.348 56.944 195.49 56.944H194.51L194.3 56.286H195.14C195.457 56.286 195.718 56.2627 195.924 56.216C196.082 56.16 196.208 56.0433 196.302 55.866C196.432 55.558 196.502 54.914 196.512 53.934H192.032V58.246H197.366V58.904C197.067 60.444 196.544 61.7413 195.798 62.796C196.488 63.4867 197.352 64.1307 198.388 64.728L197.884 65.316C196.885 64.7093 196.045 64.056 195.364 63.356C194.654 64.1867 193.8 64.854 192.802 65.358L192.424 64.7C193.394 64.2053 194.202 63.5707 194.846 62.796C193.847 61.6293 193.24 60.346 193.026 58.946H192.032ZM193.698 58.946C193.894 60.1313 194.416 61.228 195.266 62.236C195.91 61.312 196.372 60.2153 196.652 58.946H193.698ZM204.562 55.096V64.504H203.834V63.65H201.006V64.896H200.278V55.096H201.538C201.827 54.3027 202.037 53.4673 202.168 52.59L202.938 52.688C202.788 53.5467 202.564 54.3493 202.266 55.096H204.562ZM201.006 62.95H203.834V59.632H201.006V62.95ZM201.006 58.946H203.834V55.824H201.006V58.946ZM206.942 58.26C208.015 59.4453 208.827 60.472 209.378 61.34L208.776 61.774C208.216 60.8687 207.399 59.828 206.326 58.652L206.942 58.26ZM211.814 55.11C211.814 59.5993 211.748 62.3947 211.618 63.496C211.478 64.616 210.829 65.176 209.672 65.176L208.3 65.148L208.118 64.448C208.678 64.476 209.168 64.49 209.588 64.49C210.344 64.49 210.778 64.0747 210.89 63.244C210.992 62.4787 211.058 60.0193 211.086 55.866H206.956C206.554 56.79 206.083 57.6067 205.542 58.316L205.094 57.728C206.102 56.328 206.788 54.6107 207.152 52.576L207.894 52.66C207.716 53.5747 207.502 54.3913 207.25 55.11H211.814ZM215.86 57.322V59.898L215.846 60.01H219.696V57.322H215.86ZM215.804 60.724C215.664 62.5347 215.136 64.0327 214.222 65.218L213.662 64.7C214.586 63.4307 215.062 61.8113 215.09 59.842V53.206H225.31V63.678C225.31 64.5927 224.852 65.05 223.938 65.05H222.328L222.132 64.308C222.692 64.336 223.21 64.35 223.686 64.35C224.264 64.35 224.554 64.0327 224.554 63.398V60.724H220.452V64.896H219.696V60.724H215.804ZM224.554 60.01V57.322H220.452V60.01H224.554ZM224.554 56.622V53.948H220.452V56.622H224.554ZM219.696 53.948H215.86V56.622H219.696V53.948ZM238.372 55.138H230.084V58.162H238.372V55.138ZM230.084 58.904C230.028 61.424 229.36 63.5987 228.082 65.428L227.508 64.91C228.721 63.2767 229.332 61.1907 229.342 58.652V54.382H233.962C233.71 53.738 233.43 53.164 233.122 52.66L233.92 52.52C234.209 53.08 234.475 53.7007 234.718 54.382H239.142V58.904H230.084ZM242.068 65.232L241.9 64.504C242.46 64.5413 242.861 64.56 243.104 64.56C243.458 64.56 243.636 64.4107 243.636 64.112V60.22C243.066 60.4533 242.478 60.6633 241.872 60.85L241.676 60.094C242.329 59.9353 242.982 59.73 243.636 59.478V56.104H241.844V55.362H243.636V52.646H244.392V55.362H245.904V56.104H244.392V59.156C244.868 58.932 245.311 58.708 245.722 58.484V59.254C245.059 59.5807 244.616 59.7953 244.392 59.898V64.294C244.392 64.9193 244.051 65.232 243.37 65.232H242.068ZM247.094 53.122H253.086V57.84H247.094V53.122ZM252.33 57.196V55.81H247.836V57.196H252.33ZM247.836 55.194H252.33V53.766H247.836V55.194ZM246.072 58.988H254.038V59.688H250.454V61.494H253.492V62.18H250.454V64.252C251.107 64.3453 251.816 64.392 252.582 64.392C253.132 64.392 253.734 64.3733 254.388 64.336L254.178 65.092C253.767 65.092 253.254 65.0827 252.638 65.064C250.79 65.064 249.534 64.8867 248.872 64.532C248.321 64.224 247.817 63.6173 247.36 62.712C247.024 63.6733 246.52 64.5507 245.848 65.344L245.288 64.84C246.398 63.5333 247.005 62.0493 247.108 60.388L247.794 60.472C247.766 60.9667 247.696 61.4473 247.584 61.914C248.06 62.9593 248.61 63.6313 249.236 63.93C249.394 63.9953 249.553 64.0513 249.712 64.098V59.688H246.072V58.988ZM267.212 53.206V60.864H266.456V53.934H261.948V60.864H261.192V53.206H267.212ZM265.532 65.148C264.85 65.148 264.51 64.812 264.51 64.14V60.808H265.266V63.972C265.266 64.28 265.429 64.434 265.756 64.434H266.848C267.128 64.434 267.319 64.3593 267.422 64.21C267.571 64.0233 267.674 63.454 267.73 62.502L268.43 62.74C268.346 63.8693 268.192 64.5647 267.968 64.826C267.753 65.0407 267.426 65.148 266.988 65.148H265.532ZM263.782 55.026H264.496V58.498C264.468 60.3647 264.108 61.8487 263.418 62.95C262.746 63.9673 261.63 64.7747 260.072 65.372L259.638 64.728C261.159 64.168 262.232 63.398 262.858 62.418C263.446 61.41 263.754 60.1033 263.782 58.498V55.026ZM255.942 57.868H257.65V54.34H255.746V53.626H260.282V54.34H258.406V57.868H260.086V58.596H258.406V62.096C259.04 61.8813 259.675 61.6433 260.31 61.382V62.124C258.928 62.684 257.454 63.146 255.886 63.51L255.704 62.782C256.357 62.642 257.006 62.488 257.65 62.32V58.596H255.942V57.868ZM274.366 63.076C273.059 63.7387 271.603 64.266 269.998 64.658L269.9 63.902C271.58 63.5193 273.068 63.006 274.366 62.362V63.076ZM273.008 52.884C272.252 54.816 271.505 56.3093 270.768 57.364C271.542 57.2427 272.27 57.098 272.952 56.93L273.736 55.446L274.408 55.698C273.092 58.1993 272.004 59.9447 271.146 60.934C272.238 60.682 273.311 60.318 274.366 59.842V60.556C272.919 61.1627 271.528 61.5827 270.194 61.816L269.998 61.088C270.128 61.032 270.245 60.962 270.348 60.878C270.954 60.2247 271.682 59.156 272.532 57.672C271.785 57.8307 270.945 57.9893 270.012 58.148L269.83 57.434C269.951 57.378 270.058 57.28 270.152 57.14C270.964 55.852 271.678 54.34 272.294 52.604L273.008 52.884ZM274.702 57.91L274.87 57.84C275.364 57.476 276.022 56.4913 276.844 54.886H274.282V54.172H277.978C277.81 53.6587 277.581 53.1313 277.292 52.59L278.048 52.45C278.272 52.8887 278.505 53.4627 278.748 54.172H281.954V54.886H277.642C276.923 56.3047 276.312 57.2893 275.808 57.84C277.245 57.728 278.692 57.546 280.148 57.294C279.83 56.8273 279.452 56.3187 279.014 55.768L279.588 55.39C280.596 56.6687 281.352 57.756 281.856 58.652L281.268 59.086C281.072 58.7313 280.838 58.344 280.568 57.924C278.822 58.204 276.923 58.428 274.87 58.596L274.702 57.91ZM276.844 59.282C276.769 61.0367 276.545 62.32 276.172 63.132C275.77 63.9907 275.098 64.7233 274.156 65.33L273.666 64.728C274.506 64.2053 275.112 63.566 275.486 62.81C275.831 62.082 276.032 60.906 276.088 59.282H276.844ZM279.924 65.106C279.205 65.106 278.846 64.7373 278.846 64V59.17H279.56V63.874C279.56 64.21 279.686 64.392 279.938 64.42H280.932C281.305 64.4013 281.524 64.2427 281.59 63.944C281.674 63.5613 281.716 62.908 281.716 61.984L282.374 62.222C282.374 63.5007 282.285 64.308 282.108 64.644C281.93 64.924 281.552 65.078 280.974 65.106H279.924ZM288.072 56.888H291.95V52.576H292.734V56.888H296.43V57.644H292.734V65.4H291.95V57.644H288.072V56.888ZM285.174 52.744C286.126 53.472 286.942 54.214 287.624 54.97L287.106 55.502C286.462 54.774 285.636 54.0273 284.628 53.262L285.174 52.744ZM283.676 56.958H286.56V63.398C287.12 62.95 287.726 62.4133 288.38 61.788L288.576 62.572C287.717 63.412 286.807 64.1493 285.846 64.784L285.552 64.112C285.729 63.9347 285.818 63.7667 285.818 63.608V57.7H283.676V56.958ZM310.458 61.494C310.364 62.9313 310.182 63.86 309.912 64.28C309.66 64.7 309.156 64.91 308.4 64.91H304.788C303.957 64.91 303.542 64.476 303.542 63.608V57.644H308.554V54.102H302.8V53.374H309.282V58.372H304.284V63.37C304.284 63.9113 304.54 64.1867 305.054 64.196H308.274C308.843 64.196 309.212 63.9907 309.38 63.58C309.548 63.216 309.66 62.4413 309.716 61.256L310.458 61.494ZM299.174 52.744C300.126 53.472 300.942 54.214 301.624 54.97L301.106 55.502C300.462 54.774 299.636 54.0273 298.628 53.262L299.174 52.744ZM297.676 56.958H300.56V63.454C301.12 63.034 301.754 62.502 302.464 61.858L302.66 62.67C301.829 63.4353 300.9 64.14 299.874 64.784L299.58 64.112C299.738 63.9347 299.818 63.7667 299.818 63.608V57.7H297.676V56.958ZM313.454 53.178H321.406V57.742H323.982V58.456H318.312V60.15C318.638 60.5513 319.04 60.9667 319.516 61.396C320.561 60.8267 321.462 60.0053 322.218 58.932L322.806 59.422C322.012 60.4673 321.084 61.27 320.02 61.83C321.177 62.7727 322.516 63.5753 324.038 64.238L323.646 64.896C321.406 63.86 319.628 62.572 318.312 61.032V64.252C318.312 64.9987 317.98 65.372 317.318 65.372H315.722L315.554 64.658C316.263 64.6953 316.762 64.714 317.052 64.714C317.388 64.714 317.556 64.4993 317.556 64.07V61.102C316.081 62.4927 314.308 63.734 312.236 64.826L311.928 64.126C314.112 63.0713 315.988 61.7927 317.556 60.29V58.456H312.068V57.742H320.636V56.174H313.93V55.502H320.636V53.878H313.454V53.178ZM313.454 59.156C314.322 59.772 315.05 60.374 315.638 60.962L315.134 61.466C314.592 60.8967 313.86 60.29 312.936 59.646L313.454 59.156Z" fill="#595959"/>
<rect width="92" height="92" rx="6" fill="#E0DFDE"/>
<path d="M46.0001 57.6665C38.9126 57.6665 33.1668 51.9207 33.1668 44.8332C33.1668 37.7457 38.9126 31.9998 46.0001 31.9998C53.0876 31.9998 58.8334 37.7457 58.8334 44.8332C58.8334 51.9207 53.0876 57.6665 46.0001 57.6665ZM41.4629 61.1665C40.7303 61.1665 40.1668 60.6438 40.1668 59.9998C40.1668 59.3558 40.7303 58.8332 41.4629 58.8332H50.5373C51.2699 58.8332 51.8334 59.3558 51.8334 59.9998C51.8334 60.6438 51.2699 61.1665 50.5373 61.1665H41.4618H41.4629ZM42.5001 62.3332H49.5001C49.8095 62.3332 50.1063 62.4561 50.3251 62.6749C50.5438 62.8937 50.6668 63.1904 50.6668 63.4998C50.6668 63.8093 50.5438 64.106 50.3251 64.3248C50.1063 64.5436 49.8095 64.6665 49.5001 64.6665H42.5001C42.1907 64.6665 41.8939 64.5436 41.6751 64.3248C41.4563 64.106 41.3334 63.8093 41.3334 63.4998C41.3334 63.1904 41.4563 62.8937 41.6751 62.6749C41.8939 62.4561 42.1907 62.3332 42.5001 62.3332ZM45.9826 26.1665C46.1358 26.1665 46.2875 26.1967 46.4291 26.2553C46.5706 26.3139 46.6992 26.3999 46.8076 26.5082C46.9159 26.6165 47.0018 26.7452 47.0605 26.8867C47.1191 27.0283 47.1493 27.18 47.1493 27.3332V29.6665C47.1493 29.9759 47.0263 30.2727 46.8076 30.4915C46.5888 30.7103 46.292 30.8332 45.9826 30.8332C45.6732 30.8332 45.3764 30.7103 45.1576 30.4915C44.9388 30.2727 44.8159 29.9759 44.8159 29.6665V27.3332C44.8159 27.18 44.8461 27.0283 44.9047 26.8867C44.9634 26.7452 45.0493 26.6165 45.1576 26.5082C45.266 26.3999 45.3946 26.3139 45.5361 26.2553C45.6777 26.1967 45.8294 26.1665 45.9826 26.1665ZM59.5941 31.805C59.8128 32.0238 59.9357 32.3205 59.9357 32.6298C59.9357 32.9392 59.8128 33.2359 59.5941 33.4547L57.9444 35.1043C57.8368 35.2158 57.7081 35.3046 57.5657 35.3658C57.4234 35.4269 57.2703 35.4591 57.1154 35.4605C56.9605 35.4618 56.8069 35.4323 56.6635 35.3736C56.5201 35.315 56.3898 35.2283 56.2803 35.1188C56.1708 35.0093 56.0841 34.879 56.0255 34.7356C55.9668 34.5922 55.9373 34.4386 55.9386 34.2837C55.94 34.1288 55.9722 33.9757 56.0333 33.8334C56.0945 33.691 56.1833 33.5623 56.2948 33.4547L57.9444 31.805C58.1632 31.5863 58.4599 31.4634 58.7693 31.4634C59.0786 31.4634 59.3753 31.5863 59.5941 31.805ZM64.9001 45.4165C64.9001 45.7259 64.7772 46.0227 64.5584 46.2415C64.3396 46.4603 64.0429 46.5832 63.7334 46.5832H61.4001C61.0907 46.5832 60.7939 46.4603 60.5751 46.2415C60.3563 46.0227 60.2334 45.7259 60.2334 45.4165C60.2334 45.1071 60.3563 44.8103 60.5751 44.5915C60.7939 44.3728 61.0907 44.2498 61.4001 44.2498H63.7334C63.8866 44.2498 64.0384 44.28 64.1799 44.3386C64.3214 44.3973 64.4501 44.4832 64.5584 44.5915C64.6667 44.6999 64.7527 44.8285 64.8113 44.97C64.8699 45.1116 64.9001 45.2633 64.9001 45.4165ZM27.1001 45.4165C27.1001 45.2633 27.1303 45.1116 27.1889 44.97C27.2475 44.8285 27.3335 44.6999 27.4418 44.5915C27.5501 44.4832 27.6788 44.3973 27.8203 44.3386C27.9618 44.28 28.1136 44.2498 28.2668 44.2498H30.6001C30.9095 44.2498 31.2063 44.3728 31.4251 44.5915C31.6438 44.8103 31.7668 45.1071 31.7668 45.4165C31.7668 45.7259 31.6438 46.0227 31.4251 46.2415C31.2063 46.4603 30.9095 46.5832 30.6001 46.5832H28.2668C27.9573 46.5832 27.6606 46.4603 27.4418 46.2415C27.223 46.0227 27.1001 45.7259 27.1001 45.4165ZM32.3711 31.805C32.5899 31.5863 32.8866 31.4634 33.1959 31.4634C33.5053 31.4634 33.802 31.5863 34.0208 31.805L35.6704 33.4547C35.8829 33.6747 36.0005 33.9694 35.9979 34.2753C35.9952 34.5812 35.8725 34.8738 35.6562 35.0901C35.4399 35.3064 35.1473 35.4291 34.8414 35.4318C34.5355 35.4344 34.2408 35.3169 34.0208 35.1043L32.3711 33.4547C32.1524 33.2359 32.0295 32.9392 32.0295 32.6298C32.0295 32.3205 32.1524 32.0238 32.3711 31.805Z" fill="white"/>
</svg>
