<svg width="16" height="18" viewBox="0 0 16 18" fill="none" xmlns="http://www.w3.org/2000/svg">
<path d="M15.125 14.2364H14.5625V7.28182C14.5625 4.39568 12.118 2.01068 8.9375 1.61386V0.818182C8.9375 0.366136 8.51797 0 8 0C7.48203 0 7.0625 0.366136 7.0625 0.818182V1.61386C3.88203 2.01068 1.4375 4.39568 1.4375 7.28182V14.2364H0.875C0.460156 14.2364 0.125 14.5289 0.125 14.8909V15.5455C0.125 15.6355 0.209375 15.7091 0.3125 15.7091H5.375C5.375 16.9732 6.55156 18 8 18C9.44844 18 10.625 16.9732 10.625 15.7091H15.6875C15.7906 15.7091 15.875 15.6355 15.875 15.5455V14.8909C15.875 14.5289 15.5398 14.2364 15.125 14.2364ZM8 16.6909C7.37891 16.6909 6.875 16.2511 6.875 15.7091H9.125C9.125 16.2511 8.62109 16.6909 8 16.6909ZM3.125 14.2364V7.28182C3.125 6.14455 3.63125 5.07682 4.55234 4.27295C5.47344 3.46909 6.69688 3.02727 8 3.02727C9.30313 3.02727 10.5266 3.46909 11.4477 4.27295C12.3687 5.07682 12.875 6.14455 12.875 7.28182V14.2364H3.125Z" fill="black" fill-opacity="0.65"/>
</svg>
