<svg width="32" height="32" viewBox="0 0 32 32" fill="none" xmlns="http://www.w3.org/2000/svg">
<path d="M0 2C0 0.895431 0.895431 0 2 0H30C31.1046 0 32 0.895431 32 2V30C32 31.1046 31.1046 32 30 32H2C0.895431 32 0 31.1046 0 30V2Z" fill="white"/>
<path d="M18.8396 12.0662V11.0309C18.8396 10.9412 18.7365 10.8917 18.6669 10.9466L12.6294 15.6622C12.5781 15.7021 12.5365 15.7532 12.508 15.8115C12.4794 15.8699 12.4646 15.934 12.4646 15.999C12.4646 16.064 12.4794 16.1281 12.508 16.1865C12.5365 16.2449 12.5781 16.296 12.6294 16.3359L18.6669 21.0515C18.7378 21.1064 18.8396 21.0568 18.8396 20.9671V19.9318C18.8396 19.8662 18.8088 19.8033 18.7579 19.7631L13.9365 15.9997L18.7579 12.235C18.8088 12.1948 18.8396 12.1318 18.8396 12.0662Z" fill="#D9D9D9"/>
<path d="M2 1H30V-1H2V1ZM31 2V30H33V2H31ZM30 31H2V33H30V31ZM1 30V2H-1V30H1ZM2 31C1.44772 31 1 30.5523 1 30H-1C-1 31.6569 0.343146 33 2 33V31ZM31 30C31 30.5523 30.5523 31 30 31V33C31.6569 33 33 31.6569 33 30H31ZM30 1C30.5523 1 31 1.44772 31 2H33C33 0.343146 31.6569 -1 30 -1V1ZM2 -1C0.343146 -1 -1 0.343146 -1 2H1C1 1.44772 1.44772 1 2 1V-1Z" fill="#D9D9D9"/>
</svg>
