<svg width="48" height="48" viewBox="0 0 48 48" fill="none" xmlns="http://www.w3.org/2000/svg">
<path d="M17.0893 23.8433C17.1094 22.9654 17.2902 22.1136 17.6297 21.3121C17.9773 20.4884 18.4755 19.7511 19.1103 19.1143C19.7451 18.4775 20.4844 17.9792 21.3081 17.6317C22.1599 17.2721 23.0639 17.0893 23.998 17.0893C24.9322 17.0893 25.8362 17.2721 26.686 17.6317C27.5073 17.9785 28.2531 18.4821 28.8817 19.1143C29.0806 19.3132 29.2675 19.5241 29.4402 19.7451L28.2309 20.6893C28.2069 20.7078 28.1887 20.7327 28.1783 20.7611C28.1679 20.7895 28.1657 20.8203 28.172 20.8499C28.1783 20.8794 28.1928 20.9067 28.2139 20.9284C28.235 20.9501 28.2617 20.9654 28.2911 20.9725L31.8208 21.8364C31.9213 21.8605 32.0197 21.7842 32.0197 21.6817L32.0358 18.0475C32.0358 17.9129 31.8811 17.8366 31.7766 17.921L30.6436 18.8069C29.0987 16.8301 26.696 15.5625 23.996 15.5625C19.3936 15.5625 15.6489 19.2509 15.5626 23.8353C15.562 23.8567 15.5658 23.878 15.5736 23.898C15.5814 23.918 15.5932 23.9362 15.6082 23.9515C15.6232 23.9669 15.6411 23.9791 15.6608 23.9874C15.6806 23.9957 15.7018 24 15.7233 24H16.9286C17.017 24 17.0873 23.9297 17.0893 23.8433ZM32.2768 24H31.0715C30.9831 24 30.9128 24.0703 30.9108 24.1567C30.8907 25.0346 30.7099 25.8864 30.3704 26.6879C30.0228 27.5116 29.5246 28.2509 28.8898 28.8857C28.249 29.5291 27.4872 30.0393 26.6484 30.3869C25.8095 30.7344 24.9101 30.9124 24.0021 30.9107C23.0943 30.9124 22.1953 30.7343 21.3567 30.3868C20.5181 30.0392 19.7567 29.5291 19.1163 28.8857C18.9175 28.6868 18.7306 28.4759 18.5579 28.2549L19.7672 27.3107C19.7912 27.2922 19.8094 27.2673 19.8198 27.2389C19.8302 27.2105 19.8324 27.1797 19.8261 27.1502C19.8198 27.1206 19.8053 27.0933 19.7842 27.0716C19.7631 27.0499 19.7364 27.0346 19.707 27.0275L16.1773 26.1636C16.0768 26.1395 15.9784 26.2158 15.9784 26.3183L15.9643 29.9545C15.9643 30.0891 16.119 30.1654 16.2235 30.081L17.3565 29.1951C18.9014 31.1699 21.3041 32.4375 24.0041 32.4375C28.6085 32.4375 32.3512 28.7471 32.4375 24.1647C32.4381 24.1433 32.4343 24.122 32.4265 24.102C32.4187 24.082 32.4069 24.0638 32.3919 24.0485C32.3769 24.0331 32.359 24.0209 32.3393 24.0126C32.3195 24.0043 32.2983 24 32.2768 24Z" fill="black" fill-opacity="0.65"/>
</svg>
