<svg width="48" height="48" viewBox="0 0 48 48" fill="none" xmlns="http://www.w3.org/2000/svg">
<g clip-path="url(#clip0)">
<path d="M32.2926 26.2872L30.9768 25.1622C31.0391 24.7805 31.0712 24.3907 31.0712 24.001C31.0712 23.6113 31.0391 23.2215 30.9768 22.8398L32.2926 21.7148C32.3919 21.6299 32.4629 21.5167 32.4963 21.3904C32.5297 21.2641 32.5238 21.1306 32.4795 21.0077L32.4614 20.9555C32.0991 19.943 31.5567 19.0045 30.8603 18.1852L30.8241 18.143C30.7396 18.0436 30.627 17.9722 30.5012 17.9382C30.3753 17.9041 30.242 17.909 30.119 17.9521L28.4857 18.5327C27.883 18.0385 27.2101 17.6488 26.4828 17.3756L26.1674 15.668C26.1436 15.5395 26.0813 15.4213 25.9887 15.3291C25.8961 15.2368 25.7777 15.175 25.6491 15.1517L25.5949 15.1416C24.5482 14.9528 23.4473 14.9528 22.4007 15.1416L22.3464 15.1517C22.2179 15.175 22.0994 15.2368 22.0068 15.3291C21.9143 15.4213 21.8519 15.5395 21.8281 15.668L21.5107 17.3836C20.7893 17.6569 20.1175 18.0464 19.5219 18.5367L17.8766 17.9521C17.7536 17.9086 17.6202 17.9036 17.4943 17.9377C17.3683 17.9717 17.2557 18.0434 17.1714 18.143L17.1353 18.1852C16.4397 19.005 15.8973 19.9434 15.5342 20.9555L15.5161 21.0077C15.4257 21.2588 15.5 21.5401 15.7029 21.7148L17.0348 22.8519C16.9726 23.2296 16.9424 23.6153 16.9424 23.999C16.9424 24.3847 16.9726 24.7704 17.0348 25.1461L15.7029 26.2831C15.6037 26.3681 15.5326 26.4813 15.4993 26.6076C15.4659 26.7339 15.4717 26.8674 15.5161 26.9903L15.5342 27.0425C15.8978 28.055 16.4362 28.9892 17.1353 29.8128L17.1714 29.855C17.2559 29.9544 17.3685 30.0258 17.4944 30.0598C17.6203 30.0939 17.7535 30.089 17.8766 30.0459L19.5219 29.4613C20.1205 29.9535 20.7895 30.3432 21.5107 30.6144L21.8281 32.33C21.8519 32.4585 21.9143 32.5767 22.0068 32.6689C22.0994 32.7612 22.2179 32.823 22.3464 32.8463L22.4007 32.8564C23.4569 33.0462 24.5386 33.0462 25.5949 32.8564L25.6491 32.8463C25.7777 32.823 25.8961 32.7612 25.9887 32.6689C26.0813 32.5767 26.1436 32.4585 26.1674 32.33L26.4828 30.6224C27.2098 30.3499 27.8865 29.9589 28.4857 29.4653L30.119 30.0459C30.242 30.0894 30.3753 30.0944 30.5013 30.0603C30.6272 30.0262 30.7398 29.9546 30.8241 29.855L30.8603 29.8128C31.5594 28.9872 32.0978 28.055 32.4614 27.0425L32.4795 26.9903C32.5699 26.7432 32.4955 26.4619 32.2926 26.2872ZM29.5505 23.0769C29.6007 23.3802 29.6268 23.6916 29.6268 24.003C29.6268 24.3144 29.6007 24.6258 29.5505 24.9291L29.4179 25.7347L30.9185 27.0184C30.691 27.5425 30.4039 28.0387 30.0627 28.497L28.1984 27.836L27.5676 28.3544C27.0875 28.7481 26.5531 29.0575 25.9746 29.2744L25.2092 29.5617L24.8496 31.5104C24.2822 31.5747 23.7094 31.5747 23.142 31.5104L22.7824 29.5577L22.023 29.2664C21.4505 29.0494 20.9181 28.7401 20.442 28.3483L19.8112 27.828L17.9348 28.495C17.5933 28.0349 17.308 27.5387 17.079 27.0164L18.5958 25.7206L18.4652 24.9171C18.417 24.6177 18.3909 24.3084 18.3909 24.003C18.3909 23.6956 18.415 23.3883 18.4652 23.089L18.5958 22.2854L17.079 20.9896C17.306 20.4653 17.5933 19.9711 17.9348 19.511L19.8112 20.178L20.442 19.6577C20.9181 19.266 21.4505 18.9566 22.023 18.7396L22.7844 18.4523L23.144 16.4997C23.7085 16.4354 24.2851 16.4354 24.8516 16.4997L25.2112 18.4483L25.9766 18.7356C26.5531 18.9526 27.0895 19.2619 27.5697 19.6557L28.2005 20.174L30.0647 19.5131C30.4063 19.9731 30.6915 20.4693 30.9205 20.9916L29.4199 22.2753L29.5505 23.0769ZM23.9998 20.2664C22.0471 20.2664 20.4641 21.8494 20.4641 23.8021C20.4641 25.7548 22.0471 27.3378 23.9998 27.3378C25.9525 27.3378 27.5355 25.7548 27.5355 23.8021C27.5355 21.8494 25.9525 20.2664 23.9998 20.2664ZM25.5909 25.3932C25.3822 25.6025 25.1342 25.7684 24.8611 25.8815C24.5881 25.9946 24.2953 26.0526 23.9998 26.0521C23.3991 26.0521 22.8346 25.8171 22.4087 25.3932C22.1994 25.1845 22.0335 24.9365 21.9204 24.6634C21.8073 24.3904 21.7493 24.0977 21.7498 23.8021C21.7498 23.2015 21.9848 22.6369 22.4087 22.211C22.8346 21.7852 23.3991 21.5521 23.9998 21.5521C24.6005 21.5521 25.165 21.7852 25.5909 22.211C25.8001 22.4197 25.9661 22.6677 26.0792 22.9408C26.1923 23.2139 26.2502 23.5066 26.2498 23.8021C26.2498 24.4028 26.0147 24.9673 25.5909 25.3932Z" fill="black" fill-opacity="0.65"/>
</g>
<defs>
<clipPath id="clip0">
<rect width="18" height="18" fill="white" transform="translate(15 15)"/>
</clipPath>
</defs>
</svg>
