<svg width="20" height="20" viewBox="0 0 20 20" fill="none" xmlns="http://www.w3.org/2000/svg">
<path d="M10 1C5.02991 1 1 5.02991 1 10C1 14.9701 5.02991 19 10 19C14.9701 19 19 14.9701 19 10C19 5.02991 14.9701 1 10 1ZM10 17.4732C5.87366 17.4732 2.52679 14.1263 2.52679 10C2.52679 5.87366 5.87366 2.52679 10 2.52679C14.1263 2.52679 17.4732 5.87366 17.4732 10C17.4732 14.1263 14.1263 17.4732 10 17.4732Z" fill="black" fill-opacity="0.65"/>
<path d="M10 0.975C5.0161 0.975 0.975 5.0161 0.975 10C0.975 14.9839 5.0161 19.025 10 19.025C14.9839 19.025 19.025 14.9839 19.025 10C19.025 5.0161 14.9839 0.975 10 0.975ZM10 17.4482C5.88747 17.4482 2.55179 14.1125 2.55179 10C2.55179 5.88747 5.88747 2.55179 10 2.55179C14.1125 2.55179 17.4482 5.88747 17.4482 10C17.4482 14.1125 14.1125 17.4482 10 17.4482Z" stroke="black" stroke-opacity="0.65" stroke-width="0.05"/>
<path d="M12.2417 6.07593C11.639 5.54759 10.8434 5.2583 9.99969 5.2583C9.15594 5.2583 8.3604 5.5496 7.75772 6.07593C7.13094 6.62437 6.7854 7.36165 6.7854 8.15116V8.30384C6.7854 8.39223 6.85772 8.46455 6.94611 8.46455H7.9104C7.99879 8.46455 8.07111 8.39223 8.07111 8.30384V8.15116C8.07111 7.26522 8.93696 6.54402 9.99969 6.54402C11.0624 6.54402 11.9283 7.26522 11.9283 8.15116C11.9283 8.77593 11.4863 9.34848 10.8013 9.61165C10.3754 9.77437 10.0137 10.0596 9.7546 10.4333C9.49143 10.815 9.35482 11.273 9.35482 11.7371V12.169C9.35482 12.2574 9.42714 12.3297 9.51553 12.3297H10.4798C10.5682 12.3297 10.6405 12.2574 10.6405 12.169V11.713C10.6416 11.518 10.7014 11.3278 10.8121 11.1672C10.9228 11.0067 11.0794 10.8832 11.2613 10.813C12.4466 10.357 13.212 9.31232 13.212 8.15116C13.214 7.36165 12.8684 6.62437 12.2417 6.07593ZM9.19611 14.419C9.19611 14.6321 9.28078 14.8365 9.43148 14.9872C9.58217 15.1379 9.78657 15.2226 9.99969 15.2226C10.2128 15.2226 10.4172 15.1379 10.5679 14.9872C10.7186 14.8365 10.8033 14.6321 10.8033 14.419C10.8033 14.2059 10.7186 14.0015 10.5679 13.8508C10.4172 13.7001 10.2128 13.6154 9.99969 13.6154C9.78657 13.6154 9.58217 13.7001 9.43148 13.8508C9.28078 14.0015 9.19611 14.2059 9.19611 14.419Z" fill="black" fill-opacity="0.65"/>
<path d="M7.7248 6.03831L7.72483 6.03827C8.33709 5.50357 9.14448 5.2083 9.99969 5.2083C10.8548 5.2083 11.6623 5.50151 12.2746 6.03834C12.9115 6.59564 13.264 7.34632 13.262 8.15116C13.262 8.1512 13.262 8.15124 13.262 8.15128L13.212 8.15116C13.212 9.31232 12.4466 10.357 11.2613 10.813L7.7248 6.03831ZM7.7248 6.03831C7.08784 6.59564 6.7354 7.34635 6.7354 8.15116M7.7248 6.03831L6.7354 8.15116M6.7354 8.15116V8.30384M6.7354 8.15116V8.30384M6.7354 8.30384C6.7354 8.41984 6.83011 8.51455 6.94611 8.51455M6.7354 8.30384L6.94611 8.51455M6.94611 8.51455H7.9104M6.94611 8.51455H7.9104M7.9104 8.51455C8.02641 8.51455 8.12111 8.41984 8.12111 8.30384M7.9104 8.51455L8.12111 8.30384M8.12111 8.30384V8.15116M8.12111 8.30384V8.15116M8.12111 8.15116C8.12111 7.30099 8.95565 6.59402 9.99969 6.59402M8.12111 8.15116L9.99969 6.59402M9.99969 6.59402C11.0437 6.59402 11.8783 7.30099 11.8783 8.15116M9.99969 6.59402L11.8783 8.15116M11.8783 8.15116C11.8783 8.75095 11.4534 9.30756 10.7833 9.56498L11.8783 8.15116ZM9.14611 14.419C9.14611 14.6454 9.23604 14.8625 9.39612 15.0226C9.5562 15.1827 9.77331 15.2726 9.99969 15.2726C10.2261 15.2726 10.4432 15.1827 10.6033 15.0226C10.7633 14.8625 10.8533 14.6454 10.8533 14.419C10.8533 14.1926 10.7633 13.9755 10.6033 13.8154C10.4432 13.6554 10.2261 13.5654 9.99969 13.5654C9.77331 13.5654 9.5562 13.6554 9.39612 13.8154C9.23604 13.9755 9.14611 14.1926 9.14611 14.419Z" stroke="black" stroke-opacity="0.65" stroke-width="0.1"/>
</svg>
