<svg width="20" height="20" viewBox="0 0 20 20" fill="none" xmlns="http://www.w3.org/2000/svg">
<path d="M15.731 12.2369C15.662 12.2368 15.5938 12.2229 15.5301 12.1962C15.4665 12.1695 15.4088 12.1305 15.3604 12.0814C15.3115 12.0328 15.2727 11.975 15.2462 11.9114C15.2198 11.8478 15.2061 11.7796 15.2061 11.7107C15.2061 11.6418 15.2198 11.5736 15.2462 11.5099C15.2727 11.4463 15.3115 11.3886 15.3604 11.34L17.2381 9.46227C17.661 9.03933 17.3304 8.52402 16.9707 8.16306L13.101 4.29579C12.7935 3.98708 12.5772 3.90444 12.4532 3.88378C12.3596 3.87406 12.2259 3.87406 12.04 4.06001L8.29669 7.80331C8.8436 8.15455 9.46343 8.19466 9.85478 7.85436C10.5244 7.26734 11.4834 6.22577 11.4943 6.21484C11.5408 6.16392 11.597 6.12272 11.6595 6.09361C11.7221 6.06451 11.7897 6.04807 11.8587 6.04524C11.9276 6.04242 11.9964 6.05326 12.0611 6.07716C12.1258 6.10105 12.1851 6.13752 12.2357 6.18445C12.2867 6.2309 12.328 6.28699 12.3572 6.34949C12.3864 6.41198 12.4029 6.47963 12.4059 6.54856C12.4088 6.61748 12.3981 6.6863 12.3743 6.75105C12.3505 6.8158 12.3141 6.8752 12.2673 6.92582C12.2259 6.96836 11.2573 8.01964 10.5451 8.6492C9.61657 9.46349 8.15327 9.26782 7.13237 8.19466C7.03732 8.096 6.98502 7.96382 6.98684 7.82683C6.98867 7.68985 7.04445 7.55911 7.1421 7.46301L11.2877 3.31742C12.0096 2.59428 12.9685 2.67693 13.8448 3.5532L17.7121 7.42047C18.6503 8.35873 18.7536 9.43189 17.9794 10.2049L16.1029 12.0814C16.0545 12.1305 15.9968 12.1695 15.9331 12.1962C15.8695 12.2229 15.8012 12.2368 15.7323 12.2369H15.731ZM10.0091 17.8568C9.93621 17.8568 9.85478 17.8568 9.78185 17.8458C9.32853 17.7851 8.89464 17.5675 8.55434 17.2272L4.35771 13.0196C3.65645 12.3184 3.32708 11.7617 3.02811 11.2768C2.85188 10.9888 2.68781 10.7104 2.46053 10.4212C2.39855 10.3385 2.32684 10.2559 2.25392 10.1745C1.82126 9.64822 1.55266 9.30792 1.532 8.95669C1.532 8.93602 1.532 8.91536 1.52228 8.89592C1.49068 8.586 1.41897 7.93578 2.16156 7.19442L5.5123 3.84124C6.26582 3.08772 7.15303 3.5216 7.74005 3.82058L7.83363 3.8619C7.93167 3.90598 8.02777 3.95423 8.12167 4.00653C8.70991 4.29457 9.45249 4.64581 10.0906 5.20244C10.1429 5.24756 10.1857 5.30258 10.2167 5.36433C10.2476 5.42608 10.2661 5.49335 10.2709 5.56225C10.2758 5.63116 10.267 5.70035 10.245 5.76583C10.223 5.83131 10.1883 5.8918 10.1428 5.94381C10.0977 5.99612 10.0427 6.03898 9.98093 6.06994C9.91918 6.1009 9.85191 6.11934 9.78301 6.12419C9.7141 6.12905 9.64491 6.12023 9.57943 6.09824C9.51395 6.07625 9.45346 6.04153 9.40145 5.99607C8.86426 5.53181 8.1946 5.21217 7.65741 4.95451C7.5541 4.90346 7.4508 4.8512 7.34871 4.80988L7.25512 4.75884C6.59518 4.42947 6.42017 4.39788 6.23422 4.58382L2.90414 7.93457C2.51158 8.32713 2.54318 8.5544 2.56384 8.78046C2.56384 8.80112 2.56384 8.81206 2.57356 8.83272C2.62582 8.96641 2.91386 9.30671 3.06943 9.49266C3.14113 9.58503 3.22378 9.67739 3.28576 9.76004C3.56408 10.1113 3.75003 10.42 3.93476 10.7299C4.22402 11.2148 4.4914 11.6682 5.10151 12.2758L9.29693 16.4737C9.47315 16.6487 9.69921 16.7617 9.91676 16.7933C10.0711 16.814 10.2048 16.7824 10.2765 16.7204C10.4831 16.5138 11.5356 15.5865 12.9989 14.2982C13.8254 13.5763 14.7527 12.7608 14.8463 12.6575C14.856 12.6477 15.3919 11.9562 14.8973 11.4615L11.0203 7.58455C10.9712 7.53595 10.9323 7.47812 10.9057 7.41439C10.8792 7.35066 10.8655 7.2823 10.8655 7.21325C10.8655 7.14421 10.8792 7.07584 10.9057 7.01211C10.9323 6.94838 10.9712 6.89055 11.0203 6.84196C11.0689 6.79309 11.1266 6.7543 11.1902 6.72784C11.2539 6.70137 11.3221 6.68774 11.391 6.68774C11.4599 6.68774 11.5281 6.70137 11.5917 6.72784C11.6553 6.7543 11.7131 6.79309 11.7617 6.84196L15.6387 10.719C16.0726 11.1528 16.2378 11.7301 16.1127 12.3378C16.0215 12.7924 15.7845 13.2044 15.5876 13.4C15.4746 13.5143 14.8244 14.0806 13.6904 15.0809C12.5869 16.0507 11.216 17.2564 11.0191 17.4533C10.7724 17.7109 10.4114 17.8543 10.0091 17.8543V17.8568ZM14.382 13.8765C14.3128 13.8764 14.2443 13.8627 14.1804 13.836C14.1166 13.8093 14.0587 13.7702 14.0101 13.7209L12.1226 11.8347C12.0736 11.7861 12.0346 11.7282 12.0081 11.6645C11.9815 11.6008 11.9678 11.5324 11.9678 11.4634C11.9678 11.3943 11.9815 11.326 12.0081 11.2622C12.0346 11.1985 12.0736 11.1407 12.1226 11.0921C12.1712 11.043 12.2291 11.0041 12.2928 10.9775C12.3565 10.9509 12.4249 10.9372 12.4939 10.9372C12.563 10.9372 12.6313 10.9509 12.6951 10.9775C12.7588 11.0041 12.8166 11.043 12.8652 11.0921L14.7527 12.9783C14.8017 13.0269 14.8407 13.0847 14.8672 13.1485C14.8938 13.2122 14.9075 13.2806 14.9075 13.3496C14.9075 13.4186 14.8938 13.487 14.8672 13.5507C14.8407 13.6145 14.8017 13.6723 14.7527 13.7209C14.7053 13.7717 14.6476 13.8119 14.5835 13.8387C14.5193 13.8655 14.4502 13.8784 14.3808 13.8765H14.382ZM13.0609 15.2061C12.992 15.206 12.9238 15.1924 12.8601 15.1659C12.7965 15.1394 12.7388 15.1006 12.6902 15.0517L10.8028 13.1643C10.7539 13.1157 10.7151 13.0579 10.6886 12.9943C10.6622 12.9307 10.6485 12.8625 10.6485 12.7936C10.6485 12.7247 10.6622 12.6564 10.6886 12.5928C10.7151 12.5292 10.7539 12.4715 10.8028 12.4229C10.8513 12.3738 10.9092 12.3349 10.9729 12.3083C11.0366 12.2817 11.105 12.2681 11.174 12.2681C11.2431 12.2681 11.3115 12.2817 11.3752 12.3083C11.4389 12.3349 11.4967 12.3738 11.5453 12.4229L13.434 14.3079C13.4829 14.3565 13.5217 14.4142 13.5481 14.4779C13.5746 14.5415 13.5882 14.6097 13.5882 14.6786C13.5882 14.7475 13.5746 14.8157 13.5481 14.8793C13.5217 14.943 13.4829 15.0007 13.434 15.0493C13.3854 15.0985 13.3275 15.1377 13.2637 15.1644C13.1998 15.1911 13.1313 15.2048 13.0621 15.2048L13.0609 15.2061ZM11.628 16.6402C11.559 16.64 11.4907 16.6262 11.4271 16.5995C11.3635 16.5728 11.3058 16.5337 11.2573 16.4846L9.36985 14.5984C9.32079 14.5498 9.28185 14.492 9.25528 14.4282C9.2287 14.3645 9.21502 14.2961 9.21502 14.2271C9.21502 14.158 9.2287 14.0897 9.25528 14.0259C9.28185 13.9622 9.32079 13.9044 9.36985 13.8558C9.41842 13.8069 9.47617 13.7681 9.53979 13.7417C9.60341 13.7152 9.67163 13.7016 9.74053 13.7016C9.80943 13.7016 9.87766 13.7152 9.94127 13.7417C10.0049 13.7681 10.0626 13.8069 10.1112 13.8558L11.9987 15.742C12.0477 15.7906 12.0867 15.8485 12.1132 15.9122C12.1398 15.9759 12.1535 16.0443 12.1535 16.1133C12.1535 16.1824 12.1398 16.2507 12.1132 16.3145C12.0867 16.3782 12.0477 16.436 11.9987 16.4846C11.9502 16.5337 11.8925 16.5728 11.8289 16.5995C11.7653 16.6262 11.697 16.64 11.628 16.6402Z" fill="#595959" stroke="#595959" stroke-width="0.3"/>
</svg>
