<svg width="20" height="20" viewBox="0 0 20 20" fill="none" xmlns="http://www.w3.org/2000/svg">
<path fill-rule="evenodd" clip-rule="evenodd" d="M9.99994 2.51416C7.95458 2.51416 6.29621 4.17093 6.29621 6.21621V7.73139C6.29621 9.7767 7.95462 11.4351 9.99994 11.4351C12.0453 11.4351 13.7037 9.7767 13.7037 7.73139V6.21789C13.7037 4.17258 12.0453 2.51416 9.99994 2.51416ZM7.6497 6.21789C7.6497 4.92035 8.7024 3.86765 9.99994 3.86765C11.2974 3.86765 12.3502 4.91858 12.3502 6.21621V7.73139C12.3502 8.57074 11.9025 9.34717 11.175 9.76687C10.4476 10.1865 9.55228 10.1865 8.82484 9.76687C8.09735 9.34717 7.6497 8.57074 7.6497 7.73139V6.21789ZM5.1723 12.3485C3.68915 12.3485 2.51416 13.6808 2.51416 15.2955V17.4857H10.1266C10.4997 17.4857 10.8034 17.182 10.8034 16.809C10.8034 16.4359 10.4997 16.1322 10.1266 16.1322H3.86597V15.2955C3.86597 14.4095 4.46276 13.702 5.1723 13.702H10.7567C11.1297 13.702 11.4334 13.3983 11.4334 13.0252C11.4334 12.6522 11.1297 12.3485 10.7567 12.3485H5.1723Z" fill="#595959" stroke="#595959" stroke-width="0.1"/>
<path fill-rule="evenodd" clip-rule="evenodd" d="M16.3109 11.0861C15.3657 10.5907 14.2022 10.8482 13.5552 11.6955C12.9067 12.5429 12.9636 13.7326 13.6888 14.5148L13.7303 14.5595L12.5908 16.4007C12.4025 16.7178 12.5018 17.1274 12.8159 17.3222C13.13 17.5169 13.5421 17.4234 13.7416 17.1143L14.9067 15.2315L14.986 15.1944C16.0421 15.3444 17.0524 14.7136 17.3783 13.6985C17.7059 12.6832 17.2561 11.5815 16.3109 11.0861ZM15.2957 12.1903C14.8343 12.1903 14.4589 12.5656 14.4589 13.027C14.4589 13.4884 14.8343 13.8638 15.2957 13.8638C15.5944 13.8638 15.8709 13.705 16.0204 13.4453C16.1698 13.1858 16.1698 12.8682 16.0204 12.6087C15.8709 12.349 15.5944 12.1903 15.2957 12.1903Z" fill="#595959"/>
</svg>
