<svg width="20" height="20" viewBox="0 0 20 20" fill="none" xmlns="http://www.w3.org/2000/svg">
<path d="M9.04702 17.4992H5.29724C4.80788 17.5131 4.33305 17.3321 3.97716 16.9959C3.62127 16.6597 3.41345 16.196 3.39941 15.7066V4.29471C3.41309 3.80536 3.62054 3.34148 3.97616 3.00506C4.33179 2.66863 4.80646 2.48722 5.29582 2.5007L14.7476 2.5007C15.2328 2.4936 15.7013 2.67787 16.0516 3.01364C16.402 3.3494 16.606 3.80964 16.6195 4.29471V8.78055C16.5867 8.92351 16.5064 9.05113 16.3917 9.14252C16.277 9.23392 16.1347 9.28369 15.9881 9.28369C15.8414 9.28369 15.6991 9.23392 15.5844 9.14252C15.4697 9.05113 15.3894 8.92351 15.3566 8.78055V4.29471C15.3436 4.13206 15.2696 3.98033 15.1495 3.86986C15.0294 3.75939 14.872 3.69832 14.7089 3.69884H5.29724C5.13406 3.69832 4.9767 3.75939 4.85661 3.86986C4.73651 3.98033 4.66254 4.13206 4.64946 4.29471V15.7027C4.66048 15.8669 4.73356 16.0207 4.85387 16.133C4.97418 16.2452 5.13269 16.3075 5.29724 16.3071H9.04702C9.20505 16.3071 9.35662 16.3699 9.46836 16.4817C9.58011 16.5934 9.64289 16.745 9.64289 16.903C9.64289 17.061 9.58011 17.2126 9.46836 17.3244C9.35662 17.4361 9.20505 17.4992 9.04702 17.4992ZM12.7342 6.69212H7.01836C6.86751 6.69209 6.72285 6.63215 6.61619 6.52547C6.50953 6.41879 6.44961 6.27412 6.44961 6.12327C6.44961 5.97241 6.50953 5.82774 6.61619 5.72106C6.72285 5.61439 6.86751 5.55444 7.01836 5.55442H12.7342C12.8089 5.5544 12.8829 5.56911 12.9519 5.59769C13.021 5.62627 13.0837 5.66817 13.1365 5.721C13.1894 5.77382 13.2313 5.83653 13.2599 5.90556C13.2885 5.97458 13.3032 6.04856 13.3032 6.12327C13.3032 6.19798 13.2885 6.27196 13.2599 6.34098C13.2313 6.41 13.1894 6.47271 13.1365 6.52554C13.0837 6.57836 13.021 6.62026 12.9519 6.64884C12.8829 6.67742 12.8089 6.69213 12.7342 6.69212ZM9.52089 13.8982H6.91183C6.74936 13.8982 6.44987 13.6436 6.44987 13.3293C6.44987 13.015 6.74936 12.7605 6.91183 12.7605H9.52089C9.68373 12.7605 9.99771 13.015 9.99771 13.3293C9.99771 13.6436 9.68373 13.8982 9.52089 13.8982Z" fill="#595959"/>
<path d="M12.6909 10.2802H7.02271C6.94799 10.2802 6.87401 10.2655 6.80499 10.2369C6.73596 10.2084 6.67324 10.1665 6.62041 10.1136C6.61247 10.1057 6.6037 10.0975 6.59444 10.0892C6.48779 9.99282 6.44942 9.8551 6.44942 9.71137C6.44942 9.56764 6.48779 9.42993 6.59444 9.33357C6.6037 9.3252 6.61247 9.31704 6.62041 9.3091C6.67324 9.25628 6.73596 9.21438 6.80499 9.1858C6.87401 9.15721 6.94799 9.14251 7.02271 9.14252H12.6909C12.7656 9.14251 12.8396 9.15721 12.9086 9.1858C12.9777 9.21438 13.0404 9.25628 13.0932 9.3091C13.1461 9.36192 13.188 9.42464 13.2166 9.49366C13.2451 9.56268 13.2599 9.63666 13.2599 9.71137C13.2599 9.78608 13.2451 9.86006 13.2166 9.92908C13.188 9.9981 13.1461 10.0608 13.0932 10.1136C13.0404 10.1665 12.9777 10.2084 12.9086 10.2369C12.8396 10.2655 12.7656 10.2802 12.6909 10.2802Z" fill="#595959"/>
<path d="M9.04702 17.4992H5.29724C4.80788 17.5131 4.33305 17.3321 3.97716 16.9959C3.62127 16.6597 3.41345 16.196 3.39941 15.7066V4.29471C3.41309 3.80536 3.62054 3.34148 3.97616 3.00506C4.33179 2.66863 4.80646 2.48722 5.29582 2.5007L14.7476 2.5007C15.2328 2.4936 15.7013 2.67787 16.0516 3.01364C16.402 3.3494 16.606 3.80964 16.6195 4.29471V8.78055C16.5867 8.92351 16.5064 9.05113 16.3917 9.14252C16.277 9.23392 16.1347 9.28369 15.9881 9.28369C15.8414 9.28369 15.6991 9.23392 15.5844 9.14252C15.4697 9.05113 15.3894 8.92351 15.3566 8.78055V4.29471C15.3436 4.13206 15.2696 3.98033 15.1495 3.86986C15.0294 3.75939 14.872 3.69832 14.7089 3.69884H5.29724C5.13406 3.69832 4.9767 3.75939 4.85661 3.86986C4.73651 3.98033 4.66254 4.13206 4.64946 4.29471V15.7027C4.66048 15.8669 4.73356 16.0207 4.85387 16.133C4.97418 16.2452 5.13269 16.3075 5.29724 16.3071H9.04702C9.20505 16.3071 9.35662 16.3699 9.46836 16.4817C9.58011 16.5934 9.64289 16.745 9.64289 16.903C9.64289 17.061 9.58011 17.2126 9.46836 17.3244C9.35662 17.4361 9.20505 17.4992 9.04702 17.4992ZM12.7342 6.69212H7.01836C6.86751 6.69209 6.72285 6.63215 6.61619 6.52547C6.50953 6.41879 6.44961 6.27412 6.44961 6.12327C6.44961 5.97241 6.50953 5.82774 6.61619 5.72106C6.72285 5.61439 6.86751 5.55444 7.01836 5.55442H12.7342C12.8089 5.5544 12.8829 5.56911 12.9519 5.59769C13.021 5.62627 13.0837 5.66817 13.1365 5.721C13.1894 5.77382 13.2313 5.83653 13.2599 5.90556C13.2885 5.97458 13.3032 6.04856 13.3032 6.12327C13.3032 6.19798 13.2885 6.27196 13.2599 6.34098C13.2313 6.41 13.1894 6.47271 13.1365 6.52554C13.0837 6.57836 13.021 6.62026 12.9519 6.64884C12.8829 6.67742 12.8089 6.69213 12.7342 6.69212ZM9.52089 13.8982H6.91183C6.74936 13.8982 6.44987 13.6436 6.44987 13.3293C6.44987 13.015 6.74936 12.7605 6.91183 12.7605H9.52089C9.68373 12.7605 9.99771 13.015 9.99771 13.3293C9.99771 13.6436 9.68373 13.8982 9.52089 13.8982Z" stroke="#595959" stroke-width="0.2"/>
<path d="M12.6909 10.2802H7.02271C6.94799 10.2802 6.87401 10.2655 6.80499 10.2369C6.73596 10.2084 6.67324 10.1665 6.62041 10.1136C6.61247 10.1057 6.6037 10.0975 6.59444 10.0892C6.48779 9.99282 6.44942 9.8551 6.44942 9.71137C6.44942 9.56764 6.48779 9.42993 6.59444 9.33357C6.6037 9.3252 6.61247 9.31704 6.62041 9.3091C6.67324 9.25628 6.73596 9.21438 6.80499 9.1858C6.87401 9.15721 6.94799 9.14251 7.02271 9.14252H12.6909C12.7656 9.14251 12.8396 9.15721 12.9086 9.1858C12.9777 9.21438 13.0404 9.25628 13.0932 9.3091C13.1461 9.36192 13.188 9.42464 13.2166 9.49366C13.2451 9.56268 13.2599 9.63666 13.2599 9.71137C13.2599 9.78608 13.2451 9.86006 13.2166 9.92908C13.188 9.9981 13.1461 10.0608 13.0932 10.1136C13.0404 10.1665 12.9777 10.2084 12.9086 10.2369C12.8396 10.2655 12.7656 10.2802 12.6909 10.2802Z" stroke="#595959" stroke-width="0.2"/>
<path fill-rule="evenodd" clip-rule="evenodd" d="M12.9872 11.1623C13.9324 10.6668 15.0959 10.9243 15.7428 11.7717C16.3914 12.6191 16.3345 13.8087 15.6093 14.591L15.5678 14.6357L16.7073 16.4768C16.8956 16.794 16.7963 17.2035 16.4822 17.3983C16.1681 17.5931 15.756 17.4996 15.5565 17.1905L14.3914 15.3077L14.3121 15.2706C13.256 15.4205 12.2457 14.7898 11.9198 13.7747C11.5922 12.7594 12.042 11.6577 12.9872 11.1623ZM14.0024 12.2664C14.4638 12.2664 14.8391 12.6418 14.8391 13.1032C14.8391 13.5646 14.4638 13.9399 14.0024 13.9399C13.7037 13.9399 13.4272 13.7812 13.2777 13.5215C13.1283 13.262 13.1283 12.9444 13.2777 12.6849C13.4272 12.4252 13.7037 12.2664 14.0024 12.2664Z" fill="#595959"/>
</svg>
