<svg width="20" height="20" viewBox="0 0 20 20" fill="none" xmlns="http://www.w3.org/2000/svg">
<path d="M9.74639 17.3571C5.8332 17.3571 2.64282 14.1668 2.64282 10.2536C2.64282 7.56169 4.13831 5.14399 6.53109 3.92267C6.78034 3.79805 7.07944 3.89775 7.20406 4.14699C7.32868 4.39624 7.22899 4.69534 6.97974 4.81996C4.9359 5.84188 3.63981 7.93556 3.63981 10.2536C3.63981 13.6184 6.38154 16.3601 9.74639 16.3601C12.0644 16.3601 14.1332 15.089 15.18 13.0202C15.3046 12.771 15.6037 12.6713 15.853 12.7959C16.1022 12.9205 16.2019 13.2196 16.0773 13.4689C14.856 15.8617 12.4383 17.3571 9.74639 17.3571Z" fill="#595959" stroke="#595959" stroke-width="0.7"/>
<path d="M16.903 10.0001H10.4541C10.2044 10.0001 10 9.79383 10 9.54171V3.10133C10 2.84922 10.2044 2.64294 10.4541 2.64294H10.5223C12.3388 2.64294 14.0419 3.35345 15.3362 4.65986C16.6305 5.96627 17.3572 7.70815 17.3572 9.54171C17.3572 9.79383 17.1528 10.0001 16.903 10.0001ZM10.9083 9.08332H16.4262C16.3126 7.66231 15.7222 6.33298 14.7004 5.30161C13.6786 4.27023 12.3388 3.67432 10.9083 3.58264V9.08332Z" fill="#595959" stroke="#595959" stroke-width="0.7"/>
</svg>
