<svg width="20" height="20" viewBox="0 0 20 20" fill="none" xmlns="http://www.w3.org/2000/svg">
<path d="M13.4814 14.9322H13.4014V14.8522V8.38186C13.4014 8.24997 13.4274 8.11937 13.4778 7.99752C13.5283 7.87567 13.6023 7.76495 13.6956 7.67169C13.7888 7.57843 13.8995 7.50445 14.0214 7.45398C14.1432 7.4035 14.2738 7.37753 14.4057 7.37753H15.9463C16.2126 7.37753 16.4681 7.48334 16.6564 7.67169C16.8448 7.86004 16.9506 8.11549 16.9506 8.38186V14.8522V14.9322H16.8706H13.4814ZM8.37457 14.9322H8.29457V14.8522V6.22513C8.29457 5.95877 8.40038 5.70331 8.58873 5.51496C8.77708 5.32661 9.03254 5.2208 9.2989 5.2208H11.4557C11.722 5.2208 11.9775 5.32661 12.1658 5.51496C12.3542 5.70331 12.46 5.95877 12.46 6.22513V14.8522V14.9322H12.38H8.37457ZM3.25421 14.9322H3.17421V14.8522V3.62208C3.17421 3.35572 3.28002 3.10026 3.46837 2.91192C3.65672 2.72357 3.91217 2.61775 4.17854 2.61775H6.33531C6.60167 2.61775 6.85713 2.72357 7.04548 2.91192C7.23382 3.10026 7.33964 3.35572 7.33964 3.62208V14.8522V14.9322H7.25964H3.25421ZM15.8663 13.8478V8.46186H14.4857V13.8478H15.8663ZM11.3757 13.8479V6.30513H9.3789V13.8479H11.3757ZM6.25531 13.8478V3.70208H4.25854V13.8478H6.25531Z" fill="#595959" stroke="#595959" stroke-width="0.16"/>
<rect x="1.96069" y="15.9727" width="16.033" height="1.43558" rx="0.717789" fill="#595959"/>
</svg>
