<svg width="20" height="20" viewBox="0 0 20 20" fill="none" xmlns="http://www.w3.org/2000/svg">
<path d="M13.6713 15.8738C13.7692 15.8679 13.8674 15.8828 13.9591 15.9176C14.0509 15.9524 14.1343 16.0063 14.2037 16.0757C14.2731 16.1451 14.3269 16.2284 14.3617 16.3202C14.3965 16.4119 14.4114 16.5101 14.4055 16.608C14.3908 16.7858 14.3182 16.9539 14.1988 17.0865C14.0795 17.2191 13.92 17.3089 13.7447 17.3422H6.32943C6.23146 17.3482 6.13335 17.3333 6.04158 17.2985C5.9498 17.2637 5.86646 17.2098 5.79706 17.1404C5.72766 17.071 5.67378 16.9877 5.63899 16.8959C5.6042 16.8041 5.58929 16.706 5.59524 16.608C5.60995 16.4302 5.68254 16.2622 5.80188 16.1296C5.92122 15.997 6.08074 15.9071 6.25601 15.8738H13.6713ZM16.608 2.6585C16.706 2.65255 16.8041 2.66746 16.8959 2.70225C16.9877 2.73704 17.071 2.79092 17.1404 2.86032C17.2098 2.92972 17.2637 3.01306 17.2985 3.10483C17.3333 3.19661 17.3482 3.29472 17.3422 3.39269V13.6713C17.3482 13.7692 17.3333 13.8674 17.2985 13.9591C17.2637 14.0509 17.2098 14.1343 17.1404 14.2037C17.071 14.2731 16.9877 14.3269 16.8959 14.3617C16.8041 14.3965 16.706 14.4114 16.608 14.4055H3.39269C3.29472 14.4114 3.19661 14.3965 3.10483 14.3617C3.01306 14.3269 2.92972 14.2731 2.86032 14.2037C2.79092 14.1343 2.73704 14.0509 2.70225 13.9591C2.66746 13.8674 2.65255 13.7692 2.6585 13.6713V3.39269C2.65255 3.29472 2.66746 3.19661 2.70225 3.10483C2.73704 3.01306 2.79092 2.92972 2.86032 2.86032C2.92972 2.79092 3.01306 2.73704 3.10483 2.70225C3.19661 2.66746 3.29472 2.65255 3.39269 2.6585H16.608ZM15.8738 4.12687H4.12687V12.9371H15.8738V4.12687ZM12.9371 7.7978C13.0351 7.79185 13.1332 7.80676 13.225 7.84155C13.3167 7.87634 13.4001 7.93021 13.4695 7.99962C13.5389 8.06902 13.5927 8.15236 13.6275 8.24413C13.6623 8.33591 13.6772 8.43402 13.6713 8.53199C13.6566 8.70978 13.584 8.87785 13.4646 9.01045C13.3453 9.14306 13.1858 9.23288 13.0105 9.26617H7.06362C6.96565 9.27213 6.86754 9.25721 6.77576 9.22242C6.68399 9.18763 6.60064 9.13376 6.53124 9.06436C6.46184 8.99496 6.40797 8.91161 6.37318 8.81984C6.33839 8.72807 6.32348 8.62995 6.32943 8.53199C6.34414 8.35419 6.41672 8.18612 6.53606 8.05352C6.65541 7.92092 6.81493 7.83109 6.9902 7.7978H12.9371Z" fill="#595959"/>
</svg>
