<svg width="20" height="20" viewBox="0 0 20 20" fill="none" xmlns="http://www.w3.org/2000/svg">
<path d="M16.3478 9.44702C15.7895 9.44702 15.3274 9.89947 15.3274 10.4674C15.3274 11.0258 15.7798 11.4878 16.3478 11.4878C16.9061 11.4878 17.3682 11.0354 17.3682 10.4674C17.3586 9.90909 16.9061 9.44702 16.3478 9.44702Z" fill="#595959"/>
<path d="M8.06972 5.97947C8.06972 5.7384 7.87429 5.54297 7.63322 5.54297C7.39215 5.54297 7.19672 5.7384 7.19672 5.97947V6.77857H6.45406C6.21178 6.77857 6.01538 6.97498 6.01538 7.21725C6.01538 7.45952 6.21178 7.65592 6.45406 7.65592H7.19672V8.41415C7.19672 8.65522 7.39215 8.85065 7.63322 8.85065C7.87429 8.85065 8.06972 8.65522 8.06972 8.41415V7.65592H8.79446C9.03673 7.65592 9.23313 7.45952 9.23313 7.21725C9.23313 6.97498 9.03673 6.77857 8.79446 6.77857H8.06972V5.97947Z" fill="#595959" stroke="#595959" stroke-width="0.3"/>
<path d="M11.3924 10.4433L15.77 5.79628C16.0933 5.45954 15.7835 4.92076 15.7161 4.89382L15.7296 4.88035C14.5982 3.58727 12.3353 2.375 10.0993 2.375C5.89678 2.375 2.50244 5.76934 2.50244 9.97186C2.50244 14.1609 5.89678 17.5687 10.0993 17.5687C12.1197 17.5687 13.9516 16.774 15.312 15.4944C15.4602 15.3328 15.7835 15.0499 15.5545 14.6997L11.3924 10.4433ZM10.0993 16.6124C6.43557 16.6124 3.45878 13.6356 3.45878 9.97186C3.45878 6.30813 6.43557 3.33134 10.0993 3.33134C11.985 3.33134 13.6687 4.12605 14.8675 5.37872L10.0993 10.4702L14.4769 14.9556C13.2916 15.9793 11.7695 16.6124 10.0993 16.6124Z" fill="#595959" stroke="#595959" stroke-width="0.5"/>
</svg>
