<svg width="20" height="20" viewBox="0 0 20 20" fill="none" xmlns="http://www.w3.org/2000/svg">
<path d="M9.99984 17.6797C9.63507 17.6797 9.27669 17.5839 8.9606 17.4018L4.10932 14.601C3.79376 14.418 3.53171 14.1555 3.34934 13.8397C3.16698 13.5238 3.07068 13.1656 3.07007 12.8009V7.19926C3.07066 6.83454 3.16695 6.47636 3.34931 6.16051C3.53168 5.84466 3.79375 5.58219 4.10932 5.39934L8.9606 2.59791C9.27681 2.41619 9.63514 2.32056 9.99984 2.32056C10.3646 2.32056 10.7229 2.41619 11.0391 2.59791L15.8906 5.39898C16.2062 5.58186 16.4683 5.84438 16.6506 6.1603C16.833 6.47622 16.9293 6.83448 16.9298 7.19926V12.8009C16.9292 13.1656 16.8329 13.5238 16.6505 13.8397C16.4682 14.1555 16.2061 14.418 15.8906 14.601L11.0393 17.4018C10.7231 17.5839 10.3647 17.6798 9.99984 17.6797ZM9.99984 3.48063C9.83878 3.48049 9.68051 3.52278 9.54098 3.60324L4.6897 6.40413C4.5503 6.48489 4.43454 6.60084 4.35402 6.74038C4.27349 6.87991 4.23101 7.03815 4.23083 7.19926V12.8009C4.23108 12.9619 4.27358 13.1201 4.35411 13.2595C4.43463 13.399 4.55035 13.5149 4.6897 13.5956L9.54098 16.3965C9.68064 16.4767 9.83888 16.5189 9.99994 16.5189C10.161 16.5189 10.3192 16.4767 10.4589 16.3965L15.3102 13.5956C15.4495 13.5149 15.5652 13.399 15.6458 13.2595C15.7263 13.1201 15.7688 12.9619 15.769 12.8009V7.19926C15.7688 7.03821 15.7263 6.88005 15.6458 6.74058C15.5652 6.60111 15.4495 6.48522 15.3102 6.40449L10.4587 3.60324C10.3191 3.52303 10.1609 3.48039 9.99984 3.48063Z" fill="#595959" stroke="#595959" stroke-width="0.3"/>
<path d="M13.6886 7.51444C13.6452 7.45303 13.5902 7.40077 13.5266 7.36066C13.463 7.32055 13.3921 7.29336 13.318 7.28066C13.2439 7.26796 13.168 7.26999 13.0946 7.28664C13.0213 7.30329 12.952 7.33423 12.8906 7.37768L9.99995 9.42281L7.10909 7.37768C7.0478 7.33333 6.97831 7.30157 6.90466 7.28425C6.83101 7.26692 6.75466 7.26437 6.68002 7.27675C6.60538 7.28913 6.53393 7.31619 6.46982 7.35636C6.4057 7.39653 6.35019 7.44902 6.30649 7.51079C6.2628 7.57256 6.23178 7.64238 6.21525 7.71621C6.19871 7.79004 6.19698 7.86642 6.21016 7.94092C6.22334 8.01543 6.25116 8.08658 6.29202 8.15026C6.33287 8.21394 6.38595 8.26889 6.44818 8.31192L9.29569 10.3251V14.38C9.29569 14.5339 9.35683 14.6816 9.46568 14.7904C9.57452 14.8992 9.72214 14.9604 9.87607 14.9604C10.03 14.9604 10.1776 14.8992 10.2865 14.7904C10.3953 14.6816 10.4565 14.5339 10.4565 14.38V10.502L13.5524 8.31192C13.6762 8.2242 13.7601 8.09092 13.7856 7.94138C13.8112 7.79183 13.7763 7.63826 13.6886 7.51444Z" fill="#595959" stroke="#595959" stroke-width="0.4"/>
</svg>
